<svg width="180" height="240" viewBox="0 0 180 240" fill="none" xmlns="http://www.w3.org/2000/svg">
<path d="M166.667 0C174.031 0.000266847 180 5.96992 180 13.3336V226.666C180 234.03 174.031 240 166.667 240H73.3304C65.9669 240 59.9977 234.03 59.9977 226.666C59.9977 226.622 59.9934 220.012 59.9977 203.334C60 194.337 59.9977 195 59.9977 190C59.9977 185 55 180.002 40 180.002H13.3327C5.96921 180.002 0 174.032 0 166.668V133.337C0.000176306 125.973 5.96932 120.004 13.3327 120.004H46.664C54.0276 120.004 59.9975 125.973 59.9977 133.337V150C59.9977 156.942 59.9954 164.775 59.9977 170C60 175.225 65 180.002 80 180.002H106.67C114.033 180.002 120.002 174.032 120.002 166.668V73.3316C120.002 65.9679 114.033 59.9983 106.67 59.998H73.3304C65.9669 59.9978 59.9977 54.0281 59.9977 46.6645V13.3336C59.9977 5.96991 65.9669 0.000241837 73.3304 0H166.667Z" fill="#D9D9D9"/>
<path d="M166.667 0C174.031 0.000266847 180 5.96992 180 13.3336V226.666C180 234.03 174.031 240 166.667 240H73.3304C65.9669 240 59.9977 234.03 59.9977 226.666C59.9977 226.622 59.9934 220.012 59.9977 203.334C60 194.337 59.9977 195 59.9977 190C59.9977 185 55 180.002 40 180.002H13.3327C5.96921 180.002 0 174.032 0 166.668V133.337C0.000176306 125.973 5.96932 120.004 13.3327 120.004H46.664C54.0276 120.004 59.9975 125.973 59.9977 133.337V150C59.9977 156.942 59.9954 164.775 59.9977 170C60 175.225 65 180.002 80 180.002H106.67C114.033 180.002 120.002 174.032 120.002 166.668V73.3316C120.002 65.9679 114.033 59.9983 106.67 59.998H73.3304C65.9669 59.9978 59.9977 54.0281 59.9977 46.6645V13.3336C59.9977 5.96991 65.9669 0.000241837 73.3304 0H166.667Z" fill="url(#paint0_linear_5575_21742)"/>
<defs>
<linearGradient id="paint0_linear_5575_21742" x1="90.0077" y1="16.581" x2="90" y2="240" gradientUnits="userSpaceOnUse">
<stop stop-color="#FFC804"/>
<stop offset="1" stop-color="#C003D7"/>
</linearGradient>
</defs>
</svg>
